<svg width="32" height="32" viewBox="0 0 32 32" fill="none" xmlns="http://www.w3.org/2000/svg">
<rect width="32" height="32" rx="16" fill="#FFE351"/>
<path fill-rule="evenodd" clip-rule="evenodd" d="M10.6635 21.3332C10.4875 21.1564 10.3986 20.9065 10.4164 20.6386C10.4342 20.3707 10.5572 20.1067 10.7583 19.9046L19.8573 10.7617C20.0584 10.5597 20.3212 10.4361 20.5878 10.4183C20.8544 10.4004 21.1031 10.4897 21.279 10.6665C21.455 10.8433 21.5439 11.0932 21.5261 11.3611C21.5083 11.629 21.3854 11.893 21.1843 12.0951L12.0852 21.2379C11.8841 21.44 11.6213 21.5636 11.3547 21.5814C11.0881 21.5993 10.8394 21.51 10.6635 21.3332Z" fill="#1E1E1E"/>
<path fill-rule="evenodd" clip-rule="evenodd" d="M21.3365 21.3332C21.5125 21.1564 21.6014 20.9065 21.5836 20.6386C21.5658 20.3707 21.4428 20.1067 21.2417 19.9046L12.1427 10.7617C11.9416 10.5597 11.6788 10.4361 11.4122 10.4183C11.1456 10.4004 10.8969 10.4897 10.721 10.6665C10.545 10.8433 10.4561 11.0932 10.4739 11.3611C10.4917 11.629 10.6146 11.893 10.8157 12.0951L19.9148 21.2379C20.1159 21.44 20.3787 21.5636 20.6453 21.5814C20.9119 21.5993 21.1606 21.51 21.3365 21.3332Z" fill="#1E1E1E"/>
</svg>
