<svg width="16" height="18" viewBox="0 0 16 18" fill="none" xmlns="http://www.w3.org/2000/svg">
<path d="M12.9499 13.0443L9.23725 16.757C9.07489 16.9195 8.88208 17.0484 8.66986 17.1364C8.45764 17.2244 8.23017 17.2696 8.00044 17.2696C7.77071 17.2696 7.54323 17.2244 7.33101 17.1364C7.11879 17.0484 6.92599 16.9195 6.76363 16.757L3.05013 13.0443C2.0712 12.0654 1.40455 10.8181 1.13448 9.46022C0.864413 8.10237 1.00306 6.69492 1.53288 5.41586C2.0627 4.1368 2.95991 3.04357 4.11105 2.27441C5.26218 1.50526 6.61555 1.09473 8 1.09473C9.38445 1.09473 10.7378 1.50526 11.889 2.27441C13.0401 3.04357 13.9373 4.1368 14.4671 5.41586C14.9969 6.69492 15.1356 8.10237 14.8655 9.46022C14.5955 10.8181 13.9288 12.0654 12.9499 13.0443Z" stroke="#6F6F6F" stroke-linecap="round" stroke-linejoin="round"/>
<path d="M10.625 8.09424C10.625 8.79043 10.3484 9.45811 9.85615 9.95039C9.36387 10.4427 8.69619 10.7192 8 10.7192C7.30381 10.7192 6.63613 10.4427 6.14384 9.95039C5.65156 9.45811 5.375 8.79043 5.375 8.09424C5.375 7.39804 5.65156 6.73037 6.14384 6.23808C6.63613 5.7458 7.30381 5.46924 8 5.46924C8.69619 5.46924 9.36387 5.7458 9.85615 6.23808C10.3484 6.73037 10.625 7.39804 10.625 8.09424Z" stroke="#6F6F6F" stroke-linecap="round" stroke-linejoin="round"/>
</svg>
