<svg width="135" height="132" viewBox="0 0 135 132" fill="none" xmlns="http://www.w3.org/2000/svg">
<circle cx="112.435" cy="18.3193" r="64.5678" fill="#6EB2D2"/>
<path d="M90.6271 21.2408C90.0741 19.9514 89.4922 19.9254 88.9663 19.9028C88.5357 19.8833 88.0435 19.8848 87.5517 19.8848C87.0594 19.8848 86.2596 20.0791 85.5836 20.8534C84.9069 21.6286 83 23.5017 83 27.3113C83 31.1213 85.645 34.803 86.0138 35.3202C86.3829 35.8364 91.12 43.9046 98.6224 47.0084C104.858 49.5878 106.126 49.0748 107.48 48.9455C108.833 48.8166 111.847 47.0728 112.462 45.2646C113.077 43.4567 113.077 41.907 112.893 41.5831C112.708 41.2605 112.216 41.0667 111.478 40.6796C110.739 40.2923 107.11 38.4189 106.434 38.1605C105.757 37.9023 105.265 37.7734 104.773 38.5488C104.281 39.3229 102.867 41.0667 102.436 41.5831C102.006 42.1007 101.575 42.1652 100.837 41.7779C100.099 41.3893 97.7216 40.5726 94.9014 37.9349C92.7071 35.8823 91.2257 33.3476 90.7951 32.5723C90.3645 31.7981 90.749 31.3785 91.1191 30.9926C91.4507 30.6457 91.8575 30.0884 92.2269 29.6364C92.5949 29.1842 92.7178 28.8616 92.9639 28.3451C93.2102 27.8282 93.0869 27.376 92.9027 26.9887C92.7178 26.6014 91.2834 22.7718 90.6271 21.2408Z" fill="#F1F7FB"/>
</svg>
