<svg width="40" height="40" viewBox="0 0 40 40" fill="none" xmlns="http://www.w3.org/2000/svg">
<path d="M0.166712 19.8198C0.165741 23.3126 1.08249 26.7231 2.82568 29.7292L0 40L10.5582 37.244C13.4785 38.8267 16.7504 39.6559 20.0753 39.6561H20.0841C31.0604 39.6561 39.9953 30.7644 40 19.8354C40.0021 14.5395 37.9323 9.55959 34.1717 5.81297C30.4118 2.06667 25.4113 0.00241697 20.0833 0C9.10571 0 0.171406 8.89122 0.166874 19.8198" fill="#66DD2E"/>
<path d="M15.1058 11.4955C14.733 10.6734 14.3407 10.6568 13.9861 10.6423C13.6958 10.6299 13.3639 10.6309 13.0324 10.6309C12.7005 10.6309 12.1613 10.7548 11.7055 11.2485C11.2492 11.7428 9.96362 12.9372 9.96362 15.3665C9.96362 17.796 11.7469 20.1437 11.9955 20.4735C12.2444 20.8027 15.4382 25.9475 20.4963 27.9267C24.7 29.5715 25.5555 29.2444 26.4678 29.1619C27.3803 29.0797 29.4122 27.9678 29.8267 26.8148C30.2416 25.6619 30.2416 24.6737 30.1172 24.4672C29.9928 24.2614 29.661 24.1379 29.1633 23.891C28.6655 23.6441 26.2189 22.4495 25.7628 22.2847C25.3066 22.12 24.9749 22.0379 24.643 22.5323C24.3111 23.0259 23.3582 24.1379 23.0677 24.4672C22.7775 24.7972 22.4871 24.8383 21.9896 24.5913C21.4916 24.3436 19.8889 23.8228 17.9875 22.1408C16.5082 20.832 15.5094 19.2157 15.2191 18.7213C14.9288 18.2276 15.188 17.96 15.4375 17.714C15.6611 17.4927 15.9353 17.1374 16.1844 16.8492C16.4325 16.5608 16.5153 16.3551 16.6813 16.0258C16.8474 15.6961 16.7642 15.4078 16.64 15.1608C16.5153 14.9138 15.5483 12.4718 15.1058 11.4955Z" fill="white"/>
</svg>
