<svg width="20" height="20" viewBox="0 0 20 20" fill="none" xmlns="http://www.w3.org/2000/svg">
<path fill-rule="evenodd" clip-rule="evenodd" d="M1 4.58503V14.9252C1 15.6108 1.27235 16.2683 1.75714 16.7531C2.24193 17.2379 2.89944 17.5102 3.58503 17.5102H16.5102C17.1958 17.5102 17.8533 17.2379 18.3381 16.7531C18.8229 16.2683 19.0952 15.6108 19.0952 14.9252V4.58503C19.0952 3.89944 18.8229 3.24193 18.3381 2.75714C17.8533 2.27235 17.1958 2 16.5102 2H3.58503C2.89944 2 2.24193 2.27235 1.75714 2.75714C1.27235 3.24193 1 3.89944 1 4.58503Z" stroke="#6F6F6F" stroke-linecap="round" stroke-linejoin="round"/>
<path d="M3.58502 5.87744L10.0476 9.75499L16.5102 5.87744" stroke="#6F6F6F" stroke-linecap="round" stroke-linejoin="round"/>
</svg>
